<svg width="140" height="18" fill="none" xmlns="http://www.w3.org/2000/svg"><g opacity=".4" fill="#fff"><path d="M72.075 2.39c.118.228.18.478.182.733v12.446a1.67 1.67 0 01-.515 1.172 1.79 1.79 0 01-1.213.498H65.39V18h5.927c.456-.008.89-.186 1.213-.497a1.67 1.67 0 00.515-1.172V3.884a1.628 1.628 0 00-.264-.88 1.708 1.708 0 00-.706-.614zM80.052 2.215v15.009H78.04v.765h2.8V2.215h-.788zM92.512 2.215v15.009h-2.236l.224.765h2.804V2.215h-.792zM87.658 10.353v6.878h-2.013v.765h2.801v-5.011l-.788-2.632zM99.887 11.45h2.315v-.779h-3.103a1.754 1.754 0 01-.758-.176c.137.285.355.526.63.695.273.17.59.26.916.26zM100.959 12.45l-.792.176v1.878h.792V12.45zM104.844 2.39c.118.228.18.478.182.733v3.203l-2.035.454v.937l2.823-.633V3.88a1.631 1.631 0 00-.265-.878 1.715 1.715 0 00-.705-.612zM34.918 2.39c.118.228.18.478.181.733v12.446a1.67 1.67 0 01-.514 1.172 1.79 1.79 0 01-1.214.498h-4.19a1.753 1.753 0 01-.759-.176c.141.28.36.515.633.68.273.166.588.255.91.257h4.198a1.79 1.79 0 001.214-.497 1.67 1.67 0 00.514-1.172V3.884a1.631 1.631 0 00-.266-.88 1.713 1.713 0 00-.707-.614zM42.755 7.966h.788V4.92h1.243v-.765h-2.032v3.81zM47.397 11.26c.293-.13.542-.34.715-.604.174-.263.267-.57.266-.882V3.88c0-.313-.09-.62-.263-.885a1.705 1.705 0 00-.71-.615c.116.227.178.478.181.732v5.912c.003.312-.088.618-.26.883-.173.264-.42.474-.714.607l1.168 6.717h-2.153l.133.762h2.8l-1.163-6.732zM43.827 10.656h-1.072v6.575h-2.013v.765h2.8v-6.545h.418l-.133-.795zM54.889 14.49h.792V4.92h1.24v-.765h-2.032v10.334zM17.735 7.966h.789V4.92h1.239v-.765h-2.028v3.81zM23.378 8.522V3.88a1.628 1.628 0 00-.265-.878 1.709 1.709 0 00-.705-.612c.118.228.18.478.182.733v4.641c.004.245-.049.487-.154.71a1.648 1.648 0 01-.456.575c.193.174.348.382.456.614.108.232.167.483.173.737v5.162a1.668 1.668 0 01-.527 1.186c-.331.312-.776.486-1.24.483h-5.119v.762h5.927a1.79 1.79 0 001.213-.498 1.67 1.67 0 00.515-1.172v-5.161a1.845 1.845 0 00-.178-.739 1.904 1.904 0 00-.462-.612c.2-.154.363-.35.474-.573.11-.223.168-.468.166-.716z"/><path d="M59.747 3.123c0-.255-.063-.505-.182-.733.288.139.53.352.7.616.17.263.261.567.263.878v12.447a1.67 1.67 0 01-.515 1.172c-.322.311-.757.49-1.213.497h-4.203a1.773 1.773 0 01-.91-.256 1.69 1.69 0 01-.632-.681c.235.114.494.174.758.176h4.206a1.79 1.79 0 001.213-.498 1.67 1.67 0 00.515-1.172V3.123zM68.19 14.504h-.792V4.155h2.032v.765h-1.24v9.584zM105.026 9.639a1.615 1.615 0 00-.182-.732c.287.137.53.35.7.613.17.263.261.566.262.877v5.934c-.008.44-.192.86-.514 1.172-.323.311-.758.49-1.214.497h-4.199a1.773 1.773 0 01-.91-.256 1.69 1.69 0 01-.632-.681c.235.114.495.174.758.176h4.203c.455-.008.89-.186 1.213-.498.322-.311.507-.731.515-1.172V9.64zM100.167 7.966V4.148l2.032.007v.765h-1.24v3.046h-.792zM112.673 10.671h.258l.527 1.64v5.685h-2.801v-.765h2.016v-6.56zM117.63 2.215h1.046l-2.615 7.867 2.615 7.914h-2.823l-.023-.091-.22-.674h2.274l-2.615-7.91 2.361-7.106zM125.255 17.224V2.214h.788V17.99h-2.797v-.765h2.009zM137.044 11.418l2.168-2.094.788.765-2.164 2.094-.792-.765zM3.65 11.418l2.163-2.09.792.761-2.152 2.094-.804-.765zM18.524 14.504h-.789v-3.833h2.028v.78h-1.24v3.053zM31.03 14.504h-.789l.004-10.349h2.024v.765h-1.24v9.584z"/></g><path d="M2.164 5.791L0 7.885l2.164 2.102 2.164-2.102-2.164-2.094zM135.559 5.795l-2.164 2.09 2.171 2.102 2.16-2.102-2.167-2.09z" fill="#fff"/><path fill-rule="evenodd" clip-rule="evenodd" d="M20.926 7.031a1.59 1.59 0 00.163-.705V1.669a1.656 1.656 0 00-.51-1.176A1.774 1.774 0 0019.36 0h-5.927v15.782h5.931a1.79 1.79 0 001.213-.498 1.67 1.67 0 00.515-1.172V8.951a1.85 1.85 0 00-.173-.737 1.909 1.909 0 00-.456-.614c.196-.154.354-.348.462-.569zm-4.691-4.326h2.031v3.811h-2.031v-3.81zm0 6.516h2.031v3.833h-2.031V9.221zM33.088.493A1.774 1.774 0 0031.871 0h-4.207c-.227 0-.452.042-.662.126-.21.084-.4.207-.56.362-.161.155-.289.34-.375.542-.087.203-.131.42-.13.64v12.446c.003.441.186.864.51 1.176.323.312.76.49 1.217.493h4.207a1.79 1.79 0 001.213-.497c.322-.312.507-.732.515-1.172V1.669a1.656 1.656 0 00-.51-1.176zm-4.344 2.212h2.028l.004 10.35h-2.032V2.704zM42.334 9.221l1.137 6.56h2.793l-1.168-6.717c.297-.13.548-.338.725-.602.177-.263.271-.57.272-.884V1.669a1.609 1.609 0 00-.126-.635 1.654 1.654 0 00-.369-.54 1.72 1.72 0 00-.554-.364 1.769 1.769 0 00-.656-.13H38.46v15.782h2.8v-6.56h1.073zm-1.08-6.516h2.031v3.811h-2.031v-3.81zM57.736.493A1.774 1.774 0 0056.518 0h-4.221a1.755 1.755 0 00-1.209.496c-.319.312-.498.734-.496 1.173v12.447c.003.441.187.864.51 1.176.323.312.76.49 1.218.493h4.198a1.79 1.79 0 001.214-.497c.322-.312.507-.732.514-1.172V1.669a1.656 1.656 0 00-.51-1.176zm-4.348 2.212h2.031v10.35h-2.03V2.704zM70.246.493A1.774 1.774 0 0069.028 0h-5.927v15.785h5.927a1.79 1.79 0 001.213-.497 1.67 1.67 0 00.515-1.172V1.669a1.656 1.656 0 00-.51-1.176zm-4.344 2.212h2.03v10.35h-2.03V2.704z" fill="#fff"/><path d="M78.551 0h-2.8v15.782h2.8V0zM91.015 15.782V0h-2.811v6.469L86.15 0h-2.778v15.782h2.789V8.888l2.054 6.894h2.8zM103.014 7.01a1.773 1.773 0 00-1.217-.494h-3.119v-3.81h2.031v2.789l2.823-.633V1.669a1.652 1.652 0 00-.51-1.176A1.775 1.775 0 00101.804 0h-4.206c-.227 0-.45.044-.66.128-.209.084-.398.207-.558.362-.16.155-.287.34-.373.542-.086.202-.13.419-.13.637v5.89c0 .22.046.436.133.638.087.202.215.385.375.54.16.154.351.276.56.36.21.082.434.125.66.124h3.104v3.837h-2.031v-2.819l-2.8.63v3.247c.003.44.186.861.507 1.174.322.312.757.49 1.213.495h4.199a1.788 1.788 0 001.213-.497 1.67 1.67 0 00.515-1.172v-5.93a1.653 1.653 0 00-.511-1.177zM116.387 15.785l-2.615-7.914L116.41 0h-2.846l-2.149 6.516h-.231V0h-2.801v15.782h2.801V9.225h.257l2.1 6.469.023.091h2.823zM123.773 0h-2.801v15.782h2.801V0z" fill="#fff"/></svg>