<svg xmlns="http://www.w3.org/2000/svg" viewBox="0 0 367 152" fill="#FFF"><g fill-opacity=".4"><path d="M188.93 57.87c.31.62.48 1.3.48 1.99v33.77a4.6 4.6 0 01-4.53 4.53h-13.47v2.07h15.54a4.61 4.61 0 004.53-4.53V61.92a4.53 4.53 0 00-2.55-4.05zm20.91-.47v40.72h-5.27v2.08h7.34V57.4h-2.07zm32.66 0v40.72h-5.86l.59 2.08h7.35V57.4h-2.08zm-12.72 22.08v18.66h-5.28v2.08h7.34v-13.6l-2.06-7.14zm32.05 2.98h6.07v-2.12h-8.13c-.7 0-1.37-.17-2-.48a4.5 4.5 0 004.06 2.6zm2.81 2.71l-2.07.48v5.1h2.07v-5.58zm10.18-27.3c.31.62.48 1.3.48 1.99v8.69l-5.33 1.23v2.54l7.4-1.71v-8.7a4.53 4.53 0 00-2.55-4.04zm-183.28 0c.31.62.47 1.3.48 1.99v33.77a4.61 4.61 0 01-4.53 4.53H76.5c-.69 0-1.37-.16-1.99-.47a4.53 4.53 0 004.05 2.54h11a4.61 4.61 0 004.53-4.53V61.92a4.54 4.54 0 00-2.55-4.05zM112.08 73h2.07v-8.27h3.25v-2.07h-5.32V73zm12.17 8.94a4.44 4.44 0 002.57-4.03v-16a4.52 4.52 0 00-2.55-4.07c.3.62.47 1.3.48 1.99v16.04a4.43 4.43 0 01-2.56 4.04l3.06 18.23h-5.64l.35 2.07h7.34l-3.05-18.27zm-9.35-1.64h-2.82v17.84h-5.27v2.08h7.34V82.46h1.09l-.35-2.16zm28.99 10.4h2.07V64.73h3.25v-2.07h-5.32V90.7zM46.5 73h2.07v-8.27h3.25v-2.07H46.5V73zm14.8 1.51v-12.6a4.53 4.53 0 00-2.55-4.04c.31.62.47 1.3.48 1.99v12.6a4.45 4.45 0 01-1.6 3.48 5.17 5.17 0 011.65 3.67v14a4.6 4.6 0 01-4.63 4.53H41.23v2.07h15.53a4.61 4.61 0 004.53-4.53v-14A5.16 5.16 0 0059.62 78a4.43 4.43 0 001.67-3.5z"/><path d="M156.62 59.86c0-.7-.16-1.37-.48-2a4.54 4.54 0 012.53 4.06V95.7a4.6 4.6 0 01-4.53 4.53h-11.02a4.54 4.54 0 01-4.04-2.54c.62.3 1.3.47 1.99.47h11.02a4.6 4.6 0 004.53-4.53V59.86zm22.13 30.88h-2.07V62.66H182v2.07h-3.25v26.01zm96.55-13.2c0-.69-.17-1.37-.48-1.99a4.54 4.54 0 012.53 4.05v16.1a4.6 4.6 0 01-4.53 4.53h-11a4.54 4.54 0 01-4.05-2.54c.62.3 1.3.47 1.99.47h11.01a4.6 4.6 0 004.53-4.53V77.54zM262.57 73V62.64l5.32.02v2.07h-3.25V73h-2.07zm32.78 7.34h.67l1.38 4.45v15.43h-7.34v-2.08h5.29v-17.8zm12.99-22.94h2.74l-6.85 21.34 6.85 21.48h-7.4l-.06-.25-.58-1.83H309l-6.85-21.46 6.19-19.29zm19.98 40.72V57.4h2.07v42.81h-7.33v-2.08h5.26zm30.91-15.75l5.68-5.68 2.06 2.07-5.67 5.68-2.07-2.07zm-349.65 0l5.67-5.67 2.08 2.06-5.64 5.68-2.1-2.07zm38.99 8.37H46.5v-10.4h5.32v2.12h-3.25v8.28zm32.78 0h-2.07l.01-28.08h5.3v2.07h-3.24v26.01z"/></g><path d="M119.72 0c7.03 0 6.45 8.94-.65 11.36 6.8 4.54 1.91 17.2-8.62 17.2-12.36 0-14.54-13.64-7.13-18.36l1.33 1.78c-3.43 2.2-4.14 7.23-1.7 10.6.51-.62.97-1.29 1.36-1.99l9.57-16.45c1.59-2.78 3.85-4.14 5.84-4.14zm-14.47 24.6c1.56.86 3.32 1.28 5.1 1.23 8.56 0 11.84-12.2 3.62-13.94l-1-.1-5.95 10.3c-.52.89-1.11 1.73-1.77 2.52zM117 4.84l-2.85 4.9c3.6-.07 5.6-.86 6.96-3.41C122.88 3 119.58.39 117 4.83z"/><path d="M257.25 19.14l.24-.26a2.25 2.25 0 011.41 1.14c-2.89 3.37-6.25 6.43-11.38 6.53h-.21a3.85 3.85 0 01-3.87-2.86l1.98-.99a1.34 1.34 0 00.8.8 1.36 1.36 0 001.75-.8l5.34-9.25c.92-1.6-1.53-3.57-5.5 1.8l-10.57 18.39h-3.57l6.44-11.17a9.62 9.62 0 01-3.79.94h-.78c-3.83 4.83-10.08 3.96-10.08-.55-2.19 2.1-4.45 3.65-6.5 3.65-2.86 0-3.92-2.42-2.42-5.03l4.59-7.95c1.53-2.63-.88-3.5-6.32 3.33l-5.37 9.35h-3.56l1.21-2.1c-1.6 1.2-3.46 2-5.43 2.34h-.1c-.33.07-.67.07-1 .07a3.85 3.85 0 01-3.87-2.86l2.16-1.15a1.98 1.98 0 001.66 1.3c2.21 0 2.63-2.9 3.06-5.92.22-1.54.45-3.11.92-4.35l-.66.88c-1.19 1.6-2.7 3.64-4.37 5.58-2.92 3.4-6.36 6.53-9.2 6.53-2.86 0-3.92-2.4-2.42-5.03l3.74-6.49a1.75 1.75 0 00-.21-1.99l-.48-.57-.65.87c-2.42 3.25-3.63 4.88-5.19 6.7-2.98 3.4-6.95 6.54-10.93 6.54-3.12 0-4.97-1.94-4.78-4.5a10.3 10.3 0 01-5.48 1.4 7.81 7.81 0 01-5.96 3.27c-2.28 0-4.08-1.36-4.08-3.77-2.19 2.09-4.45 3.63-6.5 3.63-2.85 0-3.9-2.4-2.41-5.03l3.74-6.49a1.75 1.75 0 00-.21-1.99l-.48-.57-.65.87c-2.42 3.25-3.63 4.88-5.2 6.7-2.91 3.4-6.28 6.53-9.2 6.53-1.8 0-2.89-.95-3.06-2.31-1.7 1.4-3.46 2.31-4.9 2.31-2.85 0-3.9-2.4-2.4-5.02l4.96-8.57c1.5-2.58 4.14-4.08 6.05-4.08a3.68 3.68 0 013.73 3.4h1.99l-5.71 10c-.82 1.44-.38 1.99.4 1.99 1.57 0 4.05-2.32 6.6-5.3l.24-.27c2.28-2.76 4.4-5.75 5.96-7.95l-.31-.4c-1.26-1.64-1.07-3.64.91-5.44l1.84 1.98-.15.11a1.39 1.39 0 00-.45.98 1.37 1.37 0 00.4 1.01l1.98 2.37c1.15 1.4 1.73 2.65.5 4.8l-3.53 6.18c-.81 1.44-.38 1.99.4 1.99 1.58 0 4.05-2.33 6.6-5.3l.2-.21 9.9-17.11h3.6l-4.49 7.78a4.13 4.13 0 012.32-.79h.4a2.98 2.98 0 012.8 3.16 8.71 8.71 0 01-1.34 4.06l-3.32 5.75a7.54 7.54 0 005.33-2.62l.2-.23 3.45-5.96a7.48 7.48 0 016.54-4.06c2.89 0 4.73 2.46 2.82 5.71l-.5.89c-2.66 4.58-6.94 5.06-9.21 4.07l-.34.62c-1.63 2.85-.34 4.21 1.84 4.21 2.48 0 5.74-2.32 8.29-5.3l.24-.27c2.24-2.7 4.3-5.6 5.85-7.8l.1-.15-.29-.4c-1.26-1.64-1.07-3.64.91-5.44l1.84 1.98-.1.1a1.37 1.37 0 00-.43.99 1.37 1.37 0 00.42.99l1.99 2.37c1.15 1.4 1.73 2.65.5 4.8l-3.53 6.18c-.81 1.44-.38 1.99.4 1.99 1.58 0 4.05-2.33 6.6-5.3l.24-.27c2.53-2.97 5.07-6.5 6.74-8.83l1.1-1.54 2.66 1.43c-1.32 2.75-1.75 5.73-2.14 8.4-.25 1.74-.48 3.34-.92 4.66a21.86 21.86 0 004.22-3.85l.2-.22 9.8-17.17h3.54l-5.64 9.82c1.8-1.83 3.44-2.68 4.97-2.68 1.97 0 3.43 1.94 1.9 4.62l-5.1 8.94c-.8 1.44-.37 1.99.41 1.99 1.57 0 4.05-2.33 6.6-5.3l.19-.22 1.45-2.47 1.74-2.98c2.03-3.54 4.14-4.62 6.86-4.62 3.33 0 5.3 3.5 3.16 7.2l-3.33 5.75a7.6 7.6 0 005.34-2.62l.24-.26 5.52-9.6h3.53l-.71 1.23c3.6-3.23 8.94-1.35 5.64 4.25l-3.9 6.7c-.22.35-.43.75-.65 1.18-.25.48-.5.99-.81 1.47a16.6 16.6 0 006.45-4.97zm-76.68-4.49c2.1-3.66-1.55-4.24-3.54-.74l-2.27 3.97c1.33.48 3.6.55 5.3-2.34l.51-.89zm-54.55 9.8c1.46 0 3.56-1.6 5.7-4.97l2.83-4.88c1.7-3.19-2.07-4.04-3.97-.74l-4.97 8.6c-.81 1.44-.38 1.99.4 1.99zm31.39-.47c.26.23.59.34.93.33l-.01-.04a3.32 3.32 0 002.68-1.73 5.2 5.2 0 01-2.24-3.66l-1.2 2.23a3.97 3.97 0 00-.61 1.84v.16c.03.34.2.65.45.87zm3.47-4.53a3.8 3.8 0 001.15 1.41l3.61-6.19a4.33 4.33 0 00.68-2.27 1.35 1.35 0 00-1.34-1.36c-2.01 0-4.45 4.11-4.45 6.62-.03.62.1 1.23.35 1.79zm73.56-.36h.18l2.56-4.44c2.14-3.67-1.25-5.33-3.74-1.12l-4.35 7.56c-2.1 3.68 1.94 4.21 3.6 1.36v-.07a2.3 2.3 0 01-.33-1.19 2.07 2.07 0 011.28-1.93c.25-.1.52-.16.8-.17zM5.69 67.1L.02 72.78l5.67 5.7 5.67-5.7-5.67-5.68zm349.64 0l-5.67 5.68 5.7 5.7 5.65-5.7-5.68-5.67zM166.8 123.04h1.4c5.39.28 9.62 1.72 12.3 4.69 2.72-2.98 6.95-4.43 12.38-4.69h1.34c7.36.5 12.28 3.93 17.18 7.35 3.1 2.17 6.21 4.33 9.94 5.75 1.49.68 3.11 1.02 4.75 1 2.47-.27 4.04-2.76 3.72-5.55-.34-2.98-3.26-5.57-6.52-4.14a4.25 4.25 0 00-1.26.9l-.06.08c-.22.26-.5.6-1 .42-.57-.47-.06-1.14.25-1.57l.06-.07a5.97 5.97 0 016.03-2.98c5.59.4 10.6 5.3 9.74 12.74-1.9 11.06-12.02 14.04-24 15.03h-3.91a47.97 47.97 0 01-28.58-10.93 48.73 48.73 0 01-28.7 10.93h-3.84c-12.08-1.06-22.3-3.97-24.07-15.36-.67-8.1 4.15-12.09 9.76-12.5a6.05 6.05 0 016.17 3.1c.28.46.68 1.1.23 1.6-.5.08-.79-.22-1.02-.47l-.14-.14a3.98 3.98 0 00-2.8-1.23c-3.84-.14-6.04 4.13-4.51 7.56a4.3 4.3 0 003.35 2.5c1.64.02 3.26-.32 4.75-.99a24.11 24.11 0 003.85-1.88c1.9-1.1 3.68-2.32 5.47-3.54 5.1-3.47 10.19-6.94 17.73-7.6zM54.87 70.46c.28-.6.43-1.25.42-1.91V55.9a4.57 4.57 0 00-4.53-4.53H35.23V94.2h15.54a4.6 4.6 0 004.53-4.53v-14A5.17 5.17 0 0053.66 72c.5-.42.92-.95 1.2-1.55zm-12.3-11.74h5.32v10.35h-5.32V58.72zm0 17.69h5.32v10.4h-5.32V76.4zm44.18-23.69c-.85-.85-2-1.33-3.2-1.34H72.53A4.52 4.52 0 0068 55.91V89.7a4.57 4.57 0 004.53 4.53h11.02a4.6 4.6 0 004.53-4.53V55.91a4.57 4.57 0 00-1.33-3.19zm-11.4 6h5.32l.01 28.09h-5.32V58.72zm35.63 17.68l2.98 17.81h7.32l-3.06-18.23a4.44 4.44 0 002.61-4.03V55.9a4.5 4.5 0 00-4.47-4.53h-15.53V94.2h7.34V76.4h2.8zm-2.83-17.68h5.32v10.35h-5.32V58.72zm43.2-6c-.85-.85-2-1.33-3.2-1.34H137.1a4.52 4.52 0 00-4.47 4.53V89.7a4.57 4.57 0 004.53 4.53h11a4.6 4.6 0 004.54-4.53V55.91a4.57 4.57 0 00-1.34-3.19zm-11.4 6h5.33v28.09h-5.33V58.72zm44.19-6c-.85-.85-2-1.33-3.2-1.34h-15.53v42.84h15.54a4.6 4.6 0 004.53-4.53V55.91a4.57 4.57 0 00-1.34-3.19zm-11.39 6h5.33v28.09h-5.33V58.72zM205.9 51.38h-7.33v42.83h7.34V51.38zm32.68 42.83V51.38h-7.37v17.56l-5.39-17.56h-7.28v42.83h7.31v-18.7l5.39 18.7h7.34zm31.45-23.81c-.85-.84-2-1.32-3.2-1.33h-8.17V58.72H264v7.57l7.4-1.71V55.9a4.57 4.57 0 00-4.53-4.53h-11.03a4.52 4.52 0 00-4.5 4.53v16a4.5 4.5 0 004.52 4.5H264v10.42h-5.33v-7.65l-7.34 1.7v8.82a4.57 4.57 0 004.51 4.53h11a4.61 4.61 0 004.54-4.53v-16.1a4.57 4.57 0 00-1.34-3.19zm35.05 23.82l-6.85-21.48 6.91-21.36h-7.46l-5.63 17.69h-.6V51.38h-7.35v42.83h7.34v-17.8h.68l5.5 17.56.06.25h7.4zm19.36-42.84h-7.34v42.83h7.34V51.38z"/></svg>