<svg width="16" height="16" fill="#fff" xmlns="http://www.w3.org/2000/svg"><path d="M15.91 12.03a1.36 1.36 0 00-.05-.12 8.9 8.9 0 00-1.6-2.02v-.01l-.02-.01v-.01h-.01a10.1 10.1 0 01-.68-.75.76.76 0 01-.11-.74c.06-.18.31-.58.75-1.2.23-.31.4-.57.54-.77.96-1.4 1.38-2.29 1.25-2.68l-.05-.09c-.04-.06-.12-.1-.26-.15a1.17 1.17 0 00-.53-.02l-2.4.01a.28.28 0 00-.17 0l-.1.04-.05.02-.03.03a.36.36 0 00-.1.1.67.67 0 00-.08.15 15.4 15.4 0 01-.89 2.05 19.7 19.7 0 01-.57.99 4.66 4.66 0 01-.43.6 3.1 3.1 0 01-.31.32c-.1.08-.17.12-.22.1l-.14-.03a.59.59 0 01-.2-.23 1.07 1.07 0 01-.09-.35 4.6 4.6 0 01-.03-.37 7.07 7.07 0 010-.44l.02-.38a25.77 25.77 0 01.03-1.4v-.5c0-.17 0-.32-.02-.42-.02-.1-.05-.2-.09-.29a.47.47 0 00-.17-.22.91.91 0 00-.28-.12C8.52 3.05 8.15 3 7.7 3a5 5 0 00-2 .22 1.14 1.14 0 00-.31.28c-.1.13-.11.2-.04.21.33.06.57.19.7.4l.06.1a4.71 4.71 0 01.2 1.08 7.7 7.7 0 01-.2 2.32 2.01 2.01 0 01-.1.2.14.14 0 01-.04.04.57.57 0 01-.23.05c-.08 0-.17-.04-.28-.13a2.11 2.11 0 01-.35-.35 4.69 4.69 0 01-.4-.62c-.15-.27-.3-.59-.47-.95l-.13-.27a21.87 21.87 0 01-.73-1.69.6.6 0 00-.2-.29l-.04-.02a.5.5 0 00-.13-.08.89.89 0 00-.2-.06l-2.28.02c-.23 0-.39.06-.47.17l-.04.06a.33.33 0 00-.02.14c0 .07.02.15.05.25a31.72 31.72 0 002.1 4.4 22.9 22.9 0 001.72 2.49l.2.22a9.83 9.83 0 001.45 1.13 4.37 4.37 0 002.31.63h.96c.2-.02.34-.09.44-.2l.04-.05a.63.63 0 00.06-.17.98.98 0 00.03-.25 3.38 3.38 0 01.05-.7c.04-.21.09-.37.14-.48.06-.1.12-.2.18-.27a.71.71 0 01.14-.13.47.47 0 01.07-.03c.14-.05.3 0 .47.14.18.14.35.32.51.53l.57.7c.22.27.42.46.58.59l.17.1c.11.08.26.15.43.2.18.07.33.09.47.05l2.13-.03a.9.9 0 00.5-.12c.1-.07.18-.16.2-.25a.79.79 0 000-.3 1.37 1.37 0 00-.06-.25z"/></svg>