<svg width="16" height="16" fill="#fff" xmlns="http://www.w3.org/2000/svg"><path d="M15.52 2.5a6.02 6.02 0 01-.77.28c.31-.35.55-.76.7-1.21a.26.26 0 00-.38-.3 6.04 6.04 0 01-1.79.7A3.42 3.42 0 0010.9 1a3.41 3.41 0 00-3.4 3.85 8.73 8.73 0 01-5.99-3.18.26.26 0 00-.42.03 3.4 3.4 0 00-.46 1.72c0 .82.3 1.6.81 2.2a2.89 2.89 0 01-.45-.2.26.26 0 00-.38.22v.05c0 1.22.66 2.33 1.67 2.93a2.93 2.93 0 01-.26-.04.26.26 0 00-.3.33 3.4 3.4 0 002.5 2.28 6.03 6.03 0 01-3.22.93 6.15 6.15 0 01-.72-.05.26.26 0 00-.17.47A9.2 9.2 0 005.09 14a8.84 8.84 0 006.85-3.01 9.53 9.53 0 002.37-6.5 6.63 6.63 0 001.53-1.61.26.26 0 00-.32-.38z"/></svg>